<?xml version="1.0" standalone="no"?>
<!DOCTYPE svg PUBLIC "-//W3C//DTD SVG 20010904//EN"
 "http://www.w3.org/TR/2001/REC-SVG-20010904/DTD/svg10.dtd">
<svg version="1.0" xmlns="http://www.w3.org/2000/svg"
 width="239.000000pt" height="211.000000pt" viewBox="0 0 239.000000 211.000000"
 preserveAspectRatio="xMidYMid meet">

<g transform="translate(0.000000,211.000000) scale(0.100000,-0.100000)"
fill="#000000" stroke="none">
<path d="M237 1967 c-49 -15 -104 -70 -117 -116 -6 -23 -10 -302 -10 -751 0
-672 2 -717 19 -755 22 -50 71 -92 114 -100 18 -3 462 -4 988 -3 l956 3 35 27
c19 15 44 44 54 65 18 36 19 72 19 773 0 675 -1 738 -17 766 -23 43 -71 81
-116 94 -55 15 -1875 12 -1925 -3z m1911 -856 c2 -565 0 -716 -10 -723 -7 -4
-430 -8 -940 -8 -907 0 -928 0 -938 19 -14 27 -14 1385 0 1412 11 19 29 19
948 17 l937 -3 3 -714z"/>
<path d="M575 1681 c-122 -31 -193 -144 -165 -263 18 -73 85 -140 158 -158 79
-19 143 0 202 60 82 81 89 198 18 284 -50 61 -142 95 -213 77z"/>
<path d="M1238 1213 l-288 -288 -90 90 -90 90 -108 -107 c-59 -59 -142 -140
-184 -179 l-78 -72 0 -108 0 -109 800 0 800 0 0 253 0 252 -233 233 c-127 127
-234 232 -237 232 -3 0 -134 -129 -292 -287z"/>
</g>
</svg>
